<?xml version="1.0" encoding="UTF-8"?><svg id="Layer_2" xmlns="http://www.w3.org/2000/svg" viewBox="0 0 60.59 41.97"><defs><style>.cls-1{fill:#0071ce;}.cls-2{fill:#2d2a26;}</style></defs><g id="Layer_1-2"><g><path class="cls-2" d="m43.97,29.61h-23.21c-4.64,0-8.4-3.76-8.4-8.4s3.76-8.4,8.4-8.4,8.4,3.76,8.4,8.4h0v6.21h12.38V0h-12.38v2.23c-2.57-1.14-5.41-1.78-8.4-1.78C9.31.45,0,9.76,0,21.2s9.31,20.75,20.75,20.75h0s23.21.01,23.21.01l4.27-6.18-4.27-6.18Z"/><polygon class="cls-1" points="50.14 29.61 46.12 29.61 50.39 35.79 46.12 41.97 50.14 41.97 54.41 35.79 50.14 29.61"/><polygon class="cls-1" points="56.31 29.61 52.29 29.61 56.56 35.79 52.29 41.97 56.31 41.97 60.59 35.79 56.31 29.61"/></g></g></svg>