<?xml version="1.0" encoding="UTF-8"?><svg id="Layer_2" xmlns="http://www.w3.org/2000/svg" viewBox="0 0 79.82 60.38"><defs><style>.cls-1{fill:#0071ce;}.cls-2{fill:#2d2a26;}</style></defs><g id="Layer_1-2"><g><g><path class="cls-2" d="m58.33,29.61h-23.21c-4.64,0-8.4-3.76-8.4-8.4s3.76-8.4,8.4-8.4,8.4,3.76,8.4,8.4h0v6.21h12.38V0h-12.38v2.23c-2.57-1.14-5.41-1.78-8.4-1.78C23.67.45,14.36,9.76,14.36,21.2s9.31,20.75,20.75,20.75h0s23.21.01,23.21.01l4.27-6.18-4.27-6.18Z"/><polygon class="cls-1" points="64.5 29.61 60.48 29.61 64.76 35.79 60.48 41.97 64.5 41.97 68.78 35.79 64.5 29.61"/><polygon class="cls-1" points="70.68 29.61 66.66 29.61 70.93 35.79 66.66 41.97 70.68 41.97 74.95 35.79 70.68 29.61"/></g><g><path class="cls-2" d="m3.87,54.66h1.51l.87,5.61h-1.62l-.14-.99h-2.15l-.67.99H0l3.87-5.61Zm.49,3.41l-.2-1.6-1.04,1.6h1.24Z"/><path class="cls-2" d="m9.43,57.95c0-1.65,1.34-3.36,3.48-3.36,1.14,0,1.92.55,2.26,1.41l-1.34.72c-.22-.45-.57-.72-1.12-.72-.92,0-1.66.87-1.66,1.84,0,.71.47,1.15,1.11,1.15.49,0,.84-.21,1.19-.56l1.04.92c-.54.61-1.27,1.04-2.33,1.04-1.54,0-2.63-.95-2.63-2.43Z"/><path class="cls-2" d="m17.79,57.95c0-1.65,1.34-3.36,3.48-3.36,1.14,0,1.92.55,2.26,1.41l-1.34.72c-.22-.45-.57-.72-1.12-.72-.92,0-1.66.87-1.66,1.84,0,.71.47,1.15,1.11,1.15.49,0,.83-.21,1.19-.56l1.04.92c-.54.61-1.27,1.04-2.33,1.04-1.54,0-2.63-.95-2.63-2.43Z"/><path class="cls-2" d="m27.28,54.7h4.46l-.36,1.31h-2.93l-.23.84h2.66l-.33,1.22h-2.66l-.24.88h2.97l-.35,1.31h-4.5l1.5-5.57Z"/><path class="cls-2" d="m35.3,54.7h1.55l-1.13,4.21h2.66l-.37,1.35h-4.21l1.5-5.57Z"/><path class="cls-2" d="m42.91,54.7h4.46l-.36,1.31h-2.93l-.23.84h2.66l-.33,1.22h-2.66l-.24.88h2.97l-.35,1.31h-4.5l1.5-5.57Z"/><path class="cls-2" d="m50.94,54.7h2.1c.93,0,1.54.21,1.92.58.29.29.43.69.43,1.14,0,.93-.53,1.66-1.67,1.97l.86,1.88h-1.7l-.74-1.69h-.68l-.45,1.69h-1.55l1.5-5.57Zm1.71,2.67c.69,0,1.15-.29,1.15-.77,0-.15-.05-.27-.14-.37-.13-.13-.36-.19-.68-.19h-.84l-.37,1.34h.88Z"/><path class="cls-2" d="m61.22,54.66h1.51l.87,5.61h-1.62l-.14-.99h-2.15l-.67.99h-1.68l3.87-5.61Zm.49,3.41l-.2-1.6-1.04,1.6h1.24Z"/><path class="cls-2" d="m68.46,56.05h-1.67l.37-1.35h4.87l-.36,1.35h-1.67l-1.13,4.21h-1.55l1.14-4.21Z"/><path class="cls-2" d="m75.36,54.7h4.46l-.36,1.31h-2.93l-.23.84h2.66l-.33,1.22h-2.66l-.24.88h2.97l-.35,1.31h-4.5l1.5-5.57Z"/></g></g></g></svg>