<?xml version="1.0" encoding="UTF-8"?><svg id="Layer_2" xmlns="http://www.w3.org/2000/svg" viewBox="0 0 96.35 28.89"><defs><style>.cls-1{fill:#0071ce;}.cls-2{fill:#fff;}</style></defs><g id="Layer_1-2"><g><g><path class="cls-1" d="m30.27,20.38h-15.98c-3.2,0-5.79-2.59-5.79-5.79s2.59-5.79,5.79-5.79,5.78,2.59,5.79,5.78h0v4.28h8.53V0h-8.53v1.54c-1.77-.79-3.73-1.23-5.79-1.23C6.41.31,0,6.72,0,14.6s6.41,14.29,14.29,14.29h0s15.98,0,15.98,0l2.94-4.26-2.94-4.26Z"/><polygon class="cls-2" points="34.52 20.38 31.75 20.38 34.69 24.64 31.75 28.89 34.52 28.89 37.46 24.64 34.52 20.38"/><polygon class="cls-2" points="38.77 20.38 36 20.38 38.94 24.64 36 28.89 38.77 28.89 41.71 24.64 38.77 20.38"/></g><g><path class="cls-2" d="m38.54,10.17h1.15l.66,4.27h-1.24l-.1-.76h-1.63l-.51.76h-1.28l2.95-4.27Zm.38,2.6l-.15-1.22-.79,1.22h.94Z"/><path class="cls-2" d="m42.77,12.67c0-1.25,1.02-2.55,2.65-2.55.87,0,1.47.42,1.72,1.07l-1.02.54c-.17-.35-.44-.54-.85-.54-.7,0-1.27.66-1.27,1.4,0,.54.36.87.85.87.37,0,.64-.16.91-.43l.79.7c-.41.47-.97.79-1.77.79-1.17,0-2-.72-2-1.85Z"/><path class="cls-2" d="m49.14,12.67c0-1.25,1.02-2.55,2.65-2.55.87,0,1.47.42,1.72,1.07l-1.02.54c-.17-.35-.44-.54-.85-.54-.7,0-1.27.66-1.27,1.4,0,.54.36.87.85.87.37,0,.64-.16.91-.43l.79.7c-.41.47-.97.79-1.77.79-1.17,0-2-.72-2-1.85Z"/><path class="cls-2" d="m56.36,10.2h3.4l-.27,1h-2.23l-.18.64h2.02l-.25.93h-2.02l-.18.67h2.26l-.27,1h-3.43l1.14-4.24Z"/><path class="cls-2" d="m62.47,10.2h1.18l-.86,3.21h2.02l-.28,1.03h-3.2l1.14-4.24Z"/><path class="cls-2" d="m68.26,10.2h3.4l-.27,1h-2.23l-.18.64h2.02l-.25.93h-2.02l-.18.67h2.26l-.27,1h-3.43l1.14-4.24Z"/><path class="cls-2" d="m74.37,10.2h1.6c.71,0,1.17.16,1.46.44.22.22.33.53.33.87,0,.71-.41,1.27-1.27,1.5l.65,1.43h-1.3l-.56-1.28h-.52l-.34,1.28h-1.18l1.14-4.24Zm1.3,2.03c.53,0,.87-.22.87-.59,0-.12-.04-.21-.11-.28-.1-.1-.27-.15-.52-.15h-.64l-.28,1.02h.67Z"/><path class="cls-2" d="m82.19,10.17h1.15l.66,4.27h-1.24l-.1-.76h-1.63l-.51.76h-1.28l2.95-4.27Zm.38,2.6l-.15-1.22-.79,1.22h.94Z"/><path class="cls-2" d="m87.71,11.23h-1.27l.28-1.03h3.71l-.27,1.03h-1.27l-.86,3.21h-1.18l.87-3.21Z"/><path class="cls-2" d="m92.96,10.2h3.4l-.27,1h-2.23l-.18.64h2.02l-.25.93h-2.02l-.18.67h2.26l-.27,1h-3.43l1.14-4.24Z"/></g></g></g></svg>