<?xml version="1.0" standalone="no"?>
<!DOCTYPE svg PUBLIC "-//W3C//DTD SVG 20010904//EN"
 "http://www.w3.org/TR/2001/REC-SVG-20010904/DTD/svg10.dtd">
<svg version="1.0" xmlns="http://www.w3.org/2000/svg"
 width="550.000000pt" height="550.000000pt" viewBox="0 0 550.000000 550.000000"
 preserveAspectRatio="xMidYMid meet">
<metadata>
Created by potrace 1.14, written by Peter Selinger 2001-2017
</metadata>
<g transform="translate(0.000000,550.000000) scale(0.100000,-0.100000)"
fill="#000000" stroke="none">
<path d="M2705 3723 c1 -47 -5 -70 -37 -134 -71 -145 -218 -315 -378 -438
l-65 -51 -5 28 c-4 20 -12 28 -32 30 -26 3 -27 1 -30 -50 -3 -52 -4 -54 -58
-90 -79 -53 -290 -161 -298 -153 -4 4 -7 21 -8 38 0 24 -5 33 -20 35 -17 2
-19 -3 -17 -52 2 -51 0 -55 -25 -64 -15 -6 -35 -13 -44 -17 -14 -6 -17 1 -20
42 -3 47 -4 48 -35 49 l-33 1 0 -63 c0 -60 -2 -64 -30 -79 -39 -20 -50 -19
-50 5 0 11 -7 20 -15 20 -14 0 -19 -11 -16 -36 1 -6 -4 -16 -11 -21 -16 -13
-286 -101 -416 -137 -92 -25 -108 -23 -101 10 1 5 1 18 0 30 -1 17 -6 20 -30
16 -28 -4 -30 -7 -28 -43 2 -22 0 -44 -3 -49 -3 -5 -78 -24 -167 -42 -128 -26
-162 -36 -160 -48 6 -35 15 -38 82 -24 36 8 78 16 93 19 15 3 54 11 87 19 33
8 61 13 63 11 4 -3 5 -82 3 -138 -1 -26 -4 -28 -33 -27 -18 1 -86 2 -151 1
-107 -1 -118 -3 -115 -18 3 -16 21 -18 168 -20 91 -2 170 -3 175 -3 6 1 154 2
330 3 l320 2 3 -27 3 -28 -501 0 c-472 0 -501 -1 -498 -17 3 -19 -10 -18 809
-23 l77 0 -2 -97 -1 -98 -27 -3 c-16 -2 -29 -10 -29 -18 -1 -8 -2 -24 -3 -36
-1 -17 -7 -23 -24 -22 -18 0 -22 -4 -20 -20 3 -21 7 -21 258 -22 140 0 258 1
263 3 13 7 -14 45 -28 39 -16 -6 -23 10 -19 47 2 25 0 27 -30 27 l-33 0 1 94
c1 52 4 97 7 101 5 5 425 8 777 5 l38 0 -1 -147 c-1 -82 0 -153 2 -159 3 -7
43 -10 116 -9 62 1 115 3 118 3 4 1 7 70 7 152 -1 83 2 153 4 155 4 4 439 7
878 5 l85 0 -2 -67 c-1 -38 -2 -82 -2 -100 -1 -27 -5 -32 -28 -35 -24 -3 -28
-7 -28 -38 0 -30 -3 -35 -22 -34 -17 0 -23 -5 -23 -21 0 -21 1 -21 260 -21
230 0 260 2 260 15 0 9 -10 21 -22 26 -13 6 -23 19 -24 30 -2 42 -5 45 -34 45
l-30 0 0 100 0 100 203 0 c111 1 280 1 375 1 165 -1 172 0 172 19 0 20 -8 20
-435 20 l-435 0 3 23 c1 12 5 24 9 27 4 3 119 4 255 3 136 -1 253 -3 258 -3
323 4 340 5 343 23 4 19 -8 19 -224 17 l-100 -1 0 85 c0 62 3 86 12 86 7 0 43
-7 81 -16 37 -9 77 -18 88 -20 11 -1 52 -9 92 -17 l71 -14 7 24 c3 14 5 26 3
27 -2 1 -73 17 -158 35 -85 18 -162 34 -170 36 -8 2 -18 4 -22 4 -3 1 -5 21
-4 45 2 35 -2 46 -14 49 -29 8 -48 -11 -46 -44 2 -29 1 -30 -28 -24 -51 11
-56 12 -198 56 l-138 42 0 53 c0 45 -3 54 -18 54 -15 0 -18 -8 -17 -41 1 -22
-2 -42 -6 -45 -5 -2 -23 2 -41 9 l-33 13 0 90 0 89 -35 0 -35 0 0 -70 c0 -39
-4 -71 -10 -72 -17 -4 -75 20 -76 32 0 5 -1 43 -1 83 0 62 -2 72 -18 72 -15 0
-18 -10 -19 -72 -1 -39 -2 -73 -4 -74 -1 -1 -65 28 -142 65 -169 81 -332 176
-343 199 -4 9 -7 35 -6 58 1 40 0 41 -30 40 -27 -1 -31 -4 -30 -28 1 -16 -2
-28 -5 -28 -4 0 -38 25 -76 55 -166 132 -307 296 -375 437 -31 64 -37 86 -35
132 l2 56 -37 0 -36 0 1 -57z m0 -753 c0 -308 -2 -561 -5 -561 -3 -1 -23 -2
-45 -3 -39 -2 -40 -2 -40 -41 l0 -40 -197 -2 -198 -3 1 358 0 357 74 54 c146
106 297 264 377 394 17 26 30 47 31 47 1 0 2 -252 2 -560z m96 523 c41 -68
146 -197 210 -259 71 -67 202 -175 235 -192 20 -10 20 -17 20 -364 l-1 -353
-202 -3 c-157 -1 -203 1 -204 10 0 7 -2 27 -2 43 -2 28 -5 30 -42 30 l-40 0 0
563 c0 309 1 562 2 562 1 0 12 -17 24 -37z m-643 -843 l0 -331 -182 3 -181 3
0 220 c-1 121 1 227 3 236 2 8 47 36 100 63 54 26 129 67 167 91 39 24 75 43
82 44 8 1 11 -84 11 -329z m1246 290 c74 -45 295 -156 368 -186 44 -17 48 -22
49 -54 1 -42 1 -182 0 -297 l-1 -83 -245 0 c-225 0 -245 2 -246 18 -3 57 -4
619 -1 630 5 16 1 18 76 -28z m-1646 -395 l0 -225 -44 0 -44 0 0 208 0 208 33
17 c17 8 37 16 44 16 9 1 12 -56 11 -224z m-163 -213 c-3 -8 -17 -12 -37 -10
l-33 3 -2 176 -3 176 38 15 37 14 3 -180 c1 -99 0 -186 -3 -194z m2316 364
l34 -14 0 -179 0 -178 -42 -3 c-38 -3 -43 -1 -44 17 0 12 0 91 0 176 0 199 -1
195 10 195 5 0 24 -6 42 -14z m-2424 -206 l-1 -169 -261 0 -262 -1 1 92 1 91
180 53 c99 29 212 64 250 77 39 14 75 26 81 26 8 1 11 -51 11 -169z m2608 -16
l0 -154 -40 0 -40 0 0 169 0 168 40 -15 41 -15 -1 -153z m280 69 c50 -14 97
-29 105 -33 12 -6 15 -28 14 -97 l0 -88 -182 -3 -182 -2 0 149 0 149 78 -25
c42 -14 118 -36 167 -50z m-2215 -263 c3 -1 10 -1 15 0 21 5 435 6 436 1 0 -4
2 -16 5 -28 l4 -23 -475 0 -475 0 0 24 c0 13 5 26 10 28 12 4 472 2 480 -2z
m1150 2 c19 0 170 1 334 2 l300 1 1 -27 2 -28 -543 0 c-564 0 -564 0 -543 40
6 13 37 15 211 13 112 -1 219 -2 238 -1z m-1710 -194 l0 -99 -37 3 -38 3 -2
97 -2 97 27 3 c50 7 52 3 52 -104z m2494 14 c-1 -48 -2 -93 -3 -99 0 -8 -16
-13 -38 -13 l-38 0 1 93 c1 50 2 97 3 102 0 6 18 9 39 7 l37 -4 -1 -86z
m-2335 -12 l0 -100 -44 0 -45 0 0 100 0 100 45 0 44 0 0 -100z m2186 0 l0
-101 -44 3 -44 3 1 68 c1 140 -3 127 45 127 l42 0 0 -100z"/>
</g>
</svg>
