<?xml version="1.0" standalone="no"?>
<!DOCTYPE svg PUBLIC "-//W3C//DTD SVG 20010904//EN"
 "http://www.w3.org/TR/2001/REC-SVG-20010904/DTD/svg10.dtd">
<svg version="1.0" xmlns="http://www.w3.org/2000/svg"
 width="976.000000pt" height="976.000000pt" viewBox="0 0 976.000000 976.000000"
 preserveAspectRatio="xMidYMid meet">
<metadata>
Created by potrace 1.14, written by Peter Selinger 2001-2017
</metadata>
<g transform="translate(0.000000,976.000000) scale(0.100000,-0.100000)"
fill="#000000" stroke="none">
<path d="M4698 8243 c-2 -10 -3 -89 -2 -175 0 -110 -3 -158 -10 -158 -7 0 -47
15 -91 33 -85 36 -191 74 -240 87 -16 5 -61 18 -100 30 -38 12 -81 23 -95 26
-14 2 -31 7 -39 9 -7 3 -48 12 -90 21 -100 21 -98 21 -161 29 -30 4 -64 9 -75
11 -23 5 -65 10 -166 20 -100 10 -464 10 -569 -1 -47 -4 -102 -8 -122 -9 -21
0 -38 -5 -38 -9 0 -5 -3 -6 -8 -3 -4 2 -28 1 -52 -4 -74 -14 -113 -20 -149
-26 -19 -2 -37 -6 -41 -9 -4 -2 -22 -7 -41 -10 -19 -3 -52 -11 -74 -17 -22 -6
-47 -12 -55 -14 -29 -4 -133 -34 -144 -41 -6 -4 -15 -8 -21 -9 -26 -5 -143
-47 -170 -62 -16 -9 -31 -15 -32 -14 -2 1 -5 1 -8 1 -3 -1 -8 -2 -12 -3 -53
-13 -395 -189 -518 -266 -81 -51 -217 -145 -270 -187 -136 -107 -139 -109
-309 -278 -151 -149 -193 -195 -251 -269 -16 -22 -42 -53 -56 -70 -134 -159
-360 -554 -439 -766 -7 -19 -16 -39 -20 -45 -3 -5 -13 -30 -20 -55 -7 -25 -17
-49 -20 -55 -11 -15 -77 -239 -99 -335 -20 -84 -25 -110 -37 -180 -4 -19 -7
-39 -8 -45 -2 -5 -6 -32 -10 -60 -4 -27 -9 -60 -11 -71 -27 -176 -26 -668 0
-837 3 -18 7 -45 10 -62 16 -117 21 -142 61 -312 8 -38 16 -73 18 -80 1 -7 5
-16 9 -19 4 -4 7 -15 7 -23 0 -27 76 -250 125 -366 36 -87 120 -260 127 -263
5 -2 8 -9 8 -15 0 -7 23 -50 50 -96 28 -46 50 -88 50 -93 0 -4 5 -8 10 -8 6 0
10 -5 10 -10 0 -9 115 -186 130 -200 3 -3 18 -23 35 -45 16 -22 32 -42 35 -45
3 -3 13 -14 21 -26 42 -61 241 -278 318 -348 19 -17 42 -38 51 -47 15 -14 159
-134 223 -185 22 -18 112 -81 157 -111 19 -12 40 -26 45 -31 29 -22 160 -99
260 -152 39 -20 79 -41 90 -47 18 -10 42 -21 155 -71 19 -9 37 -16 40 -17 3
-1 19 -7 35 -14 70 -28 200 -74 215 -76 3 0 10 -3 16 -7 6 -4 21 -9 35 -12 13
-3 58 -15 99 -26 41 -11 84 -22 95 -24 11 -2 38 -9 60 -14 22 -6 54 -13 70
-16 17 -2 53 -9 80 -14 71 -14 148 -24 305 -38 41 -4 959 -8 2039 -8 l1964 -1
41 60 c24 33 66 94 94 135 29 41 74 107 102 145 28 39 53 77 57 85 4 8 11 20
16 25 18 21 349 501 362 526 13 24 12 28 -5 44 -11 10 -20 24 -20 31 0 7 -4
14 -8 16 -5 1 -42 53 -83 113 -41 61 -78 115 -82 120 -5 6 -39 55 -77 110 -38
55 -73 105 -79 112 -6 7 -11 14 -11 17 0 5 -143 212 -165 239 -8 9 -15 20 -15
23 0 6 -39 62 -56 81 -6 6 -24 32 -40 57 l-29 46 -1895 1 c-1042 0 -1917 2
-1945 4 -162 13 -401 74 -452 116 -7 6 -13 9 -13 5 0 -3 -17 4 -37 15 -21 12
-56 31 -78 42 -22 12 -42 24 -45 27 -3 3 -23 17 -45 32 -22 14 -51 34 -64 45
-46 35 -198 188 -232 233 -18 25 -36 47 -39 50 -31 26 -180 325 -180 362 0 8
-5 19 -12 26 -7 7 -9 12 -5 12 3 0 0 18 -8 40 -8 22 -14 43 -14 45 1 3 -5 37
-11 75 -7 39 -9 77 -6 85 3 8 1 17 -3 19 -9 6 -11 256 -2 256 3 0 6 15 6 33 2
152 96 408 212 575 23 35 43 65 43 67 0 8 70 85 141 155 126 125 333 257 469
300 25 7 50 16 55 19 6 3 15 7 20 8 6 1 37 9 70 18 80 20 99 24 170 32 109 12
347 6 396 -11 8 -3 28 -7 44 -10 60 -10 171 -44 229 -70 32 -14 65 -26 72 -26
8 0 14 -3 14 -8 0 -4 17 -15 38 -25 104 -50 222 -138 328 -243 55 -55 164
-188 164 -200 0 -4 10 -21 23 -38 21 -28 86 -156 108 -213 5 -13 13 -33 19
-45 18 -41 60 -219 67 -281 3 -34 7 -311 7 -614 1 -304 3 -554 6 -554 3 -1
452 -2 998 -3 l992 -2 0 76 c1 96 1 4322 0 4333 0 4 -447 7 -994 7 -938 0
-994 -1 -998 -17z"/>
<path d="M7447 3463 c10 -16 23 -34 29 -40 7 -7 22 -29 35 -50 13 -21 29 -44
36 -51 7 -7 13 -17 13 -22 0 -5 6 -15 13 -22 7 -7 34 -44 60 -83 26 -38 50
-74 55 -80 4 -5 34 -48 66 -95 33 -47 63 -87 67 -88 5 -2 7 -7 4 -12 -2 -4 4
-15 15 -25 11 -10 20 -24 20 -31 0 -7 4 -14 8 -16 5 -1 39 -48 77 -103 38 -55
92 -134 120 -175 l52 -75 -64 -90 c-35 -49 -66 -97 -70 -105 -4 -8 -9 -17 -13
-20 -4 -3 -26 -34 -50 -70 -24 -36 -46 -67 -49 -70 -3 -3 -30 -41 -60 -85
-110 -163 -176 -260 -181 -265 -3 -3 -14 -18 -26 -35 -11 -16 -55 -81 -98
-143 l-78 -112 328 2 c313 3 327 4 338 23 6 10 16 25 21 31 12 15 42 58 200
289 68 99 127 185 132 190 4 6 35 51 68 100 33 50 66 94 73 98 6 4 12 12 12
18 0 5 29 49 63 98 35 48 72 101 82 118 l18 31 -78 113 c-132 192 -189 274
-195 279 -4 4 -96 139 -140 206 -14 21 -36 53 -131 189 -20 28 -59 85 -88 128
l-53 77 -324 0 -324 0 17 -27z"/>
<path d="M8430 3485 c0 -3 24 -40 54 -82 29 -43 92 -134 139 -203 48 -69 95
-136 106 -150 12 -14 21 -30 21 -37 0 -6 4 -13 8 -15 4 -1 28 -32 52 -68 25
-36 47 -67 50 -70 3 -3 10 -13 15 -22 6 -9 30 -45 54 -80 24 -35 58 -83 75
-108 17 -25 34 -46 39 -48 4 -2 7 -10 7 -17 0 -8 6 -20 13 -27 47 -51 49 -56
36 -80 -6 -13 -15 -25 -19 -28 -3 -3 -20 -25 -36 -50 -17 -25 -100 -146 -186
-270 -85 -124 -174 -252 -196 -285 -23 -33 -45 -64 -49 -70 -5 -5 -31 -44 -58
-85 -28 -41 -53 -77 -56 -80 -9 -9 -69 -98 -69 -104 0 -3 145 -6 323 -6 l322
0 16 28 c36 59 161 237 170 240 5 2 9 8 9 13 0 6 43 71 95 145 52 74 95 139
95 143 0 5 4 11 8 13 11 4 152 207 152 218 0 4 4 10 8 12 7 2 89 118 124 174
5 7 -19 50 -57 103 -36 51 -65 96 -65 101 0 4 -4 10 -8 12 -5 2 -28 32 -52 68
-24 36 -47 67 -52 68 -4 2 -8 10 -8 18 0 8 -4 14 -9 14 -5 0 -13 9 -16 20 -3
11 -12 26 -19 32 -11 12 -157 222 -221 318 -16 25 -33 50 -37 55 -39 51 -98
137 -98 143 0 5 -10 18 -23 30 -23 22 -29 22 -340 22 -174 0 -317 -2 -317 -5z"/>
</g>
</svg>
